<?xml version="1.0" encoding="UTF-8"?>
<svg width="1200" height="800" xmlns="http://www.w3.org/2000/svg">
  <defs>
    <style>
      .entity-box {
        fill: #f8fafc;
        stroke: #1e293b;
        stroke-width: 2;
        rx: 8;
      }
      .primary-key {
        fill: #fef3c7;
        stroke: #f59e0b;
        stroke-width: 1;
      }
      .foreign-key {
        fill: #dbeafe;
        stroke: #3b82f6;
        stroke-width: 1;
      }
      .entity-title {
        font-family: Arial, sans-serif;
        font-size: 16px;
        font-weight: bold;
        fill: #1e293b;
        text-anchor: middle;
      }
      .attribute-text {
        font-family: Arial, sans-serif;
        font-size: 12px;
        fill: #374151;
        text-anchor: start;
      }
      .pk-text {
        font-family: Arial, sans-serif;
        font-size: 11px;
        fill: #d97706;
        font-weight: bold;
      }
      .fk-text {
        font-family: Arial, sans-serif;
        font-size: 11px;
        fill: #2563eb;
        font-weight: bold;
      }
      .relationship-line {
        stroke: #6b7280;
        stroke-width: 2;
        fill: none;
      }
      .relationship-text {
        font-family: Arial, sans-serif;
        font-size: 10px;
        fill: #4b5563;
        text-anchor: middle;
      }
      .title {
        font-family: Arial, sans-serif;
        font-size: 24px;
        font-weight: bold;
        fill: #1e293b;
        text-anchor: middle;
      }
    </style>
  </defs>

  <!-- Title -->
  <text x="600" y="30" class="title">Personal Finance Navigator - Entity Relationship Diagram</text>

  <!-- Users Entity -->
  <rect x="50" y="80" width="200" height="180" class="entity-box"/>
  <text x="150" y="100" class="entity-title">Users</text>
  <line x1="60" y1="110" x2="240" y2="110" stroke="#1e293b" stroke-width="1"/>
  
  <rect x="60" y="120" width="180" height="20" class="primary-key"/>
  <text x="70" y="133" class="pk-text">PK</text>
  <text x="95" y="133" class="attribute-text">id (varchar)</text>
  
  <text x="70" y="153" class="attribute-text">email (varchar)</text>
  <text x="70" y="173" class="attribute-text">firstName (varchar)</text>
  <text x="70" y="193" class="attribute-text">lastName (varchar)</text>
  <text x="70" y="213" class="attribute-text">profileImageUrl (varchar)</text>
  <text x="70" y="233" class="attribute-text">createdAt (timestamp)</text>
  <text x="70" y="253" class="attribute-text">updatedAt (timestamp)</text>

  <!-- Sessions Entity -->
  <rect x="320" y="80" width="200" height="120" class="entity-box"/>
  <text x="420" y="100" class="entity-title">Sessions</text>
  <line x1="330" y1="110" x2="510" y2="110" stroke="#1e293b" stroke-width="1"/>
  
  <rect x="330" y="120" width="180" height="20" class="primary-key"/>
  <text x="340" y="133" class="pk-text">PK</text>
  <text x="365" y="133" class="attribute-text">sid (varchar)</text>
  
  <text x="340" y="153" class="attribute-text">sess (jsonb)</text>
  <text x="340" y="173" class="attribute-text">expire (timestamp)</text>

  <!-- Transactions Entity -->
  <rect x="50" y="320" width="220" height="240" class="entity-box"/>
  <text x="160" y="340" class="entity-title">Transactions</text>
  <line x1="60" y1="350" x2="260" y2="350" stroke="#1e293b" stroke-width="1"/>
  
  <rect x="60" y="360" width="200" height="20" class="primary-key"/>
  <text x="70" y="373" class="pk-text">PK</text>
  <text x="95" y="373" class="attribute-text">id (serial)</text>
  
  <rect x="60" y="385" width="200" height="20" class="foreign-key"/>
  <text x="70" y="398" class="fk-text">FK</text>
  <text x="95" y="398" class="attribute-text">userId (varchar)</text>
  
  <text x="70" y="418" class="attribute-text">amount (decimal)</text>
  <text x="70" y="438" class="attribute-text">category (varchar)</text>
  <text x="70" y="458" class="attribute-text">type (varchar)</text>
  <text x="70" y="478" class="attribute-text">description (text)</text>
  <text x="70" y="498" class="attribute-text">date (date)</text>
  <text x="70" y="518" class="attribute-text">time (time)</text>
  
  <rect x="60" y="528" width="200" height="20" class="foreign-key"/>
  <text x="70" y="541" class="fk-text">FK</text>
  <text x="95" y="541" class="attribute-text">savingsGoalId (integer)</text>

  <!-- Budgets Entity -->
  <rect x="320" y="320" width="200" height="220" class="entity-box"/>
  <text x="420" y="340" class="entity-title">Budgets</text>
  <line x1="330" y1="350" x2="510" y2="350" stroke="#1e293b" stroke-width="1"/>
  
  <rect x="330" y="360" width="180" height="20" class="primary-key"/>
  <text x="340" y="373" class="pk-text">PK</text>
  <text x="365" y="373" class="attribute-text">id (serial)</text>
  
  <rect x="330" y="385" width="180" height="20" class="foreign-key"/>
  <text x="340" y="398" class="fk-text">FK</text>
  <text x="365" y="398" class="attribute-text">userId (varchar)</text>
  
  <text x="340" y="418" class="attribute-text">category (varchar)</text>
  <text x="340" y="438" class="attribute-text">amount (decimal)</text>
  <text x="340" y="458" class="attribute-text">spent (decimal)</text>
  <text x="340" y="478" class="attribute-text">period (varchar)</text>
  <text x="340" y="498" class="attribute-text">startDate (timestamp)</text>
  <text x="340" y="518" class="attribute-text">endDate (timestamp)</text>
  <text x="340" y="538" class="attribute-text">icon (varchar)</text>

  <!-- Savings Goals Entity -->
  <rect x="580" y="320" width="200" height="240" class="entity-box"/>
  <text x="680" y="340" class="entity-title">Savings Goals</text>
  <line x1="590" y1="350" x2="770" y2="350" stroke="#1e293b" stroke-width="1"/>
  
  <rect x="590" y="360" width="180" height="20" class="primary-key"/>
  <text x="600" y="373" class="pk-text">PK</text>
  <text x="625" y="373" class="attribute-text">id (serial)</text>
  
  <rect x="590" y="385" width="180" height="20" class="foreign-key"/>
  <text x="600" y="398" class="fk-text">FK</text>
  <text x="625" y="398" class="attribute-text">userId (varchar)</text>
  
  <text x="600" y="418" class="attribute-text">name (varchar)</text>
  <text x="600" y="438" class="attribute-text">targetAmount (decimal)</text>
  <text x="600" y="458" class="attribute-text">currentAmount (decimal)</text>
  <text x="600" y="478" class="attribute-text">startingSavings (decimal)</text>
  <text x="600" y="498" class="attribute-text">deadline (timestamp)</text>
  <text x="600" y="518" class="attribute-text">startDate (timestamp)</text>
  <text x="600" y="538" class="attribute-text">icon (varchar)</text>
  <text x="600" y="558" class="attribute-text">color (varchar)</text>

  <!-- Loans Entity -->
  <rect x="840" y="320" width="200" height="280" class="entity-box"/>
  <text x="940" y="340" class="entity-title">Loans</text>
  <line x1="850" y1="350" x2="1030" y2="350" stroke="#1e293b" stroke-width="1"/>
  
  <rect x="850" y="360" width="180" height="20" class="primary-key"/>
  <text x="860" y="373" class="pk-text">PK</text>
  <text x="885" y="373" class="attribute-text">id (serial)</text>
  
  <rect x="850" y="385" width="180" height="20" class="foreign-key"/>
  <text x="860" y="398" class="fk-text">FK</text>
  <text x="885" y="398" class="attribute-text">userId (varchar)</text>
  
  <text x="860" y="418" class="attribute-text">name (varchar)</text>
  <text x="860" y="438" class="attribute-text">principalAmount (decimal)</text>
  <text x="860" y="458" class="attribute-text">balance (decimal)</text>
  <text x="860" y="478" class="attribute-text">interestRate (decimal)</text>
  <text x="860" y="498" class="attribute-text">interestType (varchar)</text>
  <text x="860" y="518" class="attribute-text">interestPeriod (varchar)</text>
  <text x="860" y="538" class="attribute-text">repaymentFreq (varchar)</text>
  <text x="860" y="558" class="attribute-text">minPayment (decimal)</text>
  <text x="860" y="578" class="attribute-text">startDate (timestamp)</text>
  <text x="860" y="598" class="attribute-text">icon (varchar)</text>

  <!-- Relationship Lines -->
  
  <!-- Users to Sessions (1:1) -->
  <line x1="250" y1="140" x2="320" y2="140" class="relationship-line"/>
  <text x="285" y="135" class="relationship-text">1:1</text>

  <!-- Users to Transactions (1:N) -->
  <line x1="150" y1="260" x2="150" y2="320" class="relationship-line"/>
  <text x="120" y="290" class="relationship-text">1:N</text>

  <!-- Users to Budgets (1:N) -->
  <line x1="250" y1="180" x2="300" y2="180" class="relationship-line"/>
  <line x1="300" y1="180" x2="300" y2="395" class="relationship-line"/>
  <line x1="300" y1="395" x2="330" y2="395" class="relationship-line"/>
  <text x="275" y="175" class="relationship-text">1:N</text>

  <!-- Users to Savings Goals (1:N) -->
  <line x1="250" y1="200" x2="560" y2="200" class="relationship-line"/>
  <line x1="560" y1="200" x2="560" y2="395" class="relationship-line"/>
  <line x1="560" y1="395" x2="590" y2="395" class="relationship-line"/>
  <text x="400" y="195" class="relationship-text">1:N</text>

  <!-- Users to Loans (1:N) -->
  <line x1="250" y1="220" x2="820" y2="220" class="relationship-line"/>
  <line x1="820" y1="220" x2="820" y2="395" class="relationship-line"/>
  <line x1="820" y1="395" x2="850" y2="395" class="relationship-line"/>
  <text x="550" y="215" class="relationship-text">1:N</text>

  <!-- Savings Goals to Transactions (1:N) -->
  <line x1="580" y1="540" x2="300" y2="540" class="relationship-line"/>
  <line x1="300" y1="540" x2="270" y2="540" class="relationship-line"/>
  <text x="425" y="535" class="relationship-text">1:N</text>

  <!-- Loans to Transactions (1:N) -->
  <line x1="840" y1="560" x2="280" y2="560" class="relationship-line"/>
  <line x1="280" y1="560" x2="270" y2="550" class="relationship-line"/>
  <text x="555" y="555" class="relationship-text">1:N</text>

  <!-- Cardinality indicators -->
  <circle cx="150" cy="260" r="3" fill="#1e293b"/>
  <circle cx="150" cy="320" r="3" fill="#1e293b"/>
  
  <!-- Legend -->
  <rect x="50" y="650" width="300" height="120" fill="#f9fafb" stroke="#d1d5db" stroke-width="1" rx="5"/>
  <text x="200" y="670" class="entity-title">Legend</text>
  
  <rect x="60" y="680" width="80" height="15" class="primary-key"/>
  <text x="150" y="691" class="attribute-text">Primary Key</text>
  
  <rect x="60" y="700" width="80" height="15" class="foreign-key"/>
  <text x="150" y="711" class="attribute-text">Foreign Key</text>
  
  <line x1="60" y1="720" x2="110" y2="720" class="relationship-line"/>
  <text x="120" y="725" class="attribute-text">Relationship</text>
  
  <text x="60" y="745" class="relationship-text">1:N = One to Many</text>
  <text x="60" y="760" class="relationship-text">1:1 = One to One</text>

</svg>